<?xml version="1.0" encoding="utf-8"?>
<!-- Generator: Adobe Illustrator 22.1.0, SVG Export Plug-In . SVG Version: 6.00 Build 0)  -->
<svg version="1.1" id="Layer_1" xmlns="http://www.w3.org/2000/svg" xmlns:xlink="http://www.w3.org/1999/xlink" x="0px" y="0px"
	 viewBox="0 0 1080 1080" style="enable-background:new 0 0 1080 1080;" xml:space="preserve">
<style type="text/css">
	.st0{fill:#9691A1;}
</style>
<g>
	<g>
		<path class="st0" d="M436.2,331c0,4.6-0.3,9-0.8,13.5c-0.4,3-0.4,6.1,0.2,9.1c0.9,5,2.4,10.8,4.7,17c3,8,6.6,14.5,9.8,19.4
			c0.4,0.6,0.9,1,1.5,1.2c5.8,1.7,13.6,3.4,22.9,3.7c8.3,0.3,15.4-0.6,20.9-1.8c0.8-0.2,1.4-0.8,1.5-1.6c0.7-5.8,1.3-11.7,1.8-17.8
			c3.5-47.8-3.5-90.6-13.9-126.3c-0.5-1.6-1.8-2.9-3.4-3.5c-29.5-10-53.3-16.5-71.4-19.7c-30.7-5.6-53.9-8.3-69.6-8.3
			c-4.3,0-8.6,0.1-12.7,0.2C388.2,219.5,436.2,269.6,436.2,331z"/>
		<path class="st0" d="M992.7,844.2c-0.3-6.2-1-12-1.8-17.2c-15.1-5.8-29.1-9.5-42-11.1c-13-1.6-22.4-4.8-28.1-9.6
			c-3.2-2.2-8-10.1-14.4-23.6c-11.8-24.6-20.6-45.2-26.4-61.5c-11.2-30.1-20-52.7-26.4-67.8c-10.9-25-23.8-57.3-38.9-96.8
			c-15-39.6-32-80.3-50.9-122.3l-83.5-198l-4.3-8.6h-52.3L510.1,526.4l-15.4,40.2c-0.5-0.7-1-1.4-1.5-2c-8-10.3-17-19.4-27.1-27.4
			c-26-22.1-49.6-35.8-66.6-44.3c-6.5-3.3-12-6.3-19.6-9.8c-25.7-11.7-46.1-16.8-52.7-18.6c-44.2-11.7-100-26.5-130.6-66.7
			c-5-6.5-23.5-34.5-23.5-69.7c0-55.6,39.4-102,91.8-112.7c-51.7,5.9-92.4,23.3-122,52.1c-18.6,18.2-32.6,38.3-41.9,60.4
			c-4.3,10.3-14.5,37.2-13.9,72c1.1,65.5,39.4,117.2,68.4,142.6c15.6,13.6,40.7,31.3,66.7,44.3c2.1,1.1,9.6,5.1,19.6,9.8
			c42.2,19.8,92.6,35.4,124,44.5c33.1,9.7,60.1,33.8,73.6,65.1c6,13.9,9.3,29.2,9.3,45.4c0,53.2-36,97.9-85,111.1
			c-2.2,0.6-4.5,1.2-6.8,1.7c3.9-0.5,7.8-1,11.6-1.6c46.2-7.1,83.1-23.9,110.3-50.5c1.2-1.1,2.3-2.3,3.5-3.5
			c35-35.6,52.4-78.6,52.4-129c0-16-2.6-32.5-7.8-49.4l14.8-39.3L611,405.5c9.6,19.9,22.1,48.8,37.5,86.7
			c8,19.8,15.2,38.3,21.7,55.6c-24.7,4.1-46.3,15.5-64.7,34.4c-18.6,19.1-29.8,45.4-33.7,78.9c7-33.9,37-59.4,72.9-59.4
			c8.5,0,16.6,1.4,24.2,4c17.1,5.9,30.4,19.4,37.1,36.1l37.7,94.2l19.1,47.1c1.6,4.5,2.4,8.8,2.4,13c0,2.4-0.5,4.6-1.6,6.7
			c-1.6,3.2-4.5,5.5-7.8,6.8c-4.7,1.9-12.4,4.3-23.3,7.2l-53.3,11.5c-1,5.2-1.7,11.3-1.9,18.1c-0.1,5.2,0.1,9.9,0.5,14.1
			c47.3,2.3,96.5,3.7,147.5,3.9c58.2,0.3,114.2-1,167.7-3.5C993.1,855.9,993.1,850.3,992.7,844.2z"/>
	</g>
</g>
</svg>
